<svg width="584" height="144" viewBox="0 0 584 144" fill="none" xmlns="http://www.w3.org/2000/svg">
<rect width="584" height="144" fill="black"/>
<g transform="translate(14, 8)">
<path d="M41 23L44.2823 35.1907C47.6345 47.6407 57.3593 57.3655 69.8093 60.7177L82 64L69.8092 67.2823C57.3593 70.6345 47.6344 80.3593 44.2823 92.8093L41 105L37.7177 92.8092C34.3655 80.3593 24.6406 70.6344 12.1907 67.2823L0 64L12.1907 60.7177C24.6407 57.3655 34.3655 47.6406 37.7177 35.1907L41 23Z" fill="white" style="fill:white;fill-opacity:1;"/>
<path d="M87.8 99L106.2 29H129.2L147.6 99H134L130.2 83.6H105.2L101.4 99H87.8ZM108.3 71.4H127.1L118.6 37.3H116.8L108.3 71.4ZM181.993 100.4C173.326 100.4 166.46 98 161.393 93.2C156.326 88.3333 153.793 81.4 153.793 72.4V55.6C153.793 46.6 156.326 39.7 161.393 34.9C166.46 30.0333 173.326 27.6 181.993 27.6C190.593 27.6 197.226 29.9667 201.893 34.7C206.626 39.3667 208.993 45.8 208.993 54V54.6H195.993V53.6C195.993 49.4667 194.826 46.0667 192.493 43.4C190.226 40.7333 186.726 39.4 181.993 39.4C177.326 39.4 173.66 40.8333 170.993 43.7C168.326 46.5667 166.993 50.4667 166.993 55.4V72.6C166.993 77.4667 168.326 81.3667 170.993 84.3C173.66 87.1667 177.326 88.6 181.993 88.6C186.726 88.6 190.226 87.2667 192.493 84.6C194.826 81.8667 195.993 78.4667 195.993 74.4V72.6H208.993V74C208.993 82.2 206.626 88.6667 201.893 93.4C197.226 98.0667 190.593 100.4 181.993 100.4ZM219.748 99V29H264.748V41H232.948V57.7H261.948V69.7H232.948V87H265.348V99H219.748ZM275.12 99V29H299.62L311.72 90H313.52L325.62 29H350.12V99H337.32V38.7H335.52L323.52 99H301.72L289.72 38.7H287.92V99H275.12ZM382.603 99.8C378.736 99.8 375.336 98.9333 372.403 97.2C369.536 95.4 367.303 92.9333 365.703 89.8C364.103 86.6667 363.303 83.0667 363.303 79V49.4H375.903V78C375.903 81.7333 376.803 84.5333 378.603 86.4C380.47 88.2667 383.103 89.2 386.503 89.2C390.37 89.2 393.37 87.9333 395.503 85.4C397.636 82.8 398.703 79.2 398.703 74.6V49.4H411.303V99H398.903V92.5H397.103C396.303 94.1667 394.803 95.8 392.603 97.4C390.403 99 387.07 99.8 382.603 99.8ZM445.924 100.4C439.458 100.4 434.158 99 430.024 96.2C425.891 93.4 423.391 89.4 422.524 84.2L434.124 81.2C434.591 83.5333 435.358 85.3667 436.424 86.7C437.558 88.0333 438.924 89 440.524 89.6C442.191 90.1333 443.991 90.4 445.924 90.4C448.858 90.4 451.024 89.9 452.424 88.9C453.824 87.8333 454.524 86.5333 454.524 85C454.524 83.4667 453.858 82.3 452.524 81.5C451.191 80.6333 449.058 79.9333 446.124 79.4L443.324 78.9C439.858 78.2333 436.691 77.3333 433.824 76.2C430.958 75 428.658 73.3667 426.924 71.3C425.191 69.2333 424.324 66.5667 424.324 63.3C424.324 58.3667 426.124 54.6 429.724 52C433.324 49.3333 438.058 48 443.924 48C449.458 48 454.058 49.2333 457.724 51.7C461.391 54.1667 463.791 57.4 464.924 61.4L453.224 65C452.691 62.4667 451.591 60.6667 449.924 59.6C448.324 58.5333 446.324 58 443.924 58C441.524 58 439.691 58.4333 438.424 59.3C437.158 60.1 436.524 61.2333 436.524 62.7C436.524 64.3 437.191 65.5 438.524 66.3C439.858 67.0333 441.658 67.6 443.924 68L446.724 68.5C450.458 69.1667 453.824 70.0667 456.824 71.2C459.891 72.2667 462.291 73.8333 464.024 75.9C465.824 77.9 466.724 80.6333 466.724 84.1C466.724 89.3 464.824 93.3333 461.024 96.2C457.291 99 452.258 100.4 445.924 100.4ZM477.766 99V49.4H490.366V99H477.766ZM484.066 43.6C481.799 43.6 479.866 42.8667 478.266 41.4C476.732 39.9333 475.966 38 475.966 35.6C475.966 33.2 476.732 31.2667 478.266 29.8C479.866 28.3333 481.799 27.6 484.066 27.6C486.399 27.6 488.332 28.3333 489.866 29.8C491.399 31.2667 492.166 33.2 492.166 35.6C492.166 38 491.399 39.9333 489.866 41.4C488.332 42.8667 486.399 43.6 484.066 43.6ZM527.628 100.4C522.828 100.4 518.461 99.4 514.528 97.4C510.661 95.4 507.595 92.5 505.328 88.7C503.061 84.9 501.928 80.3 501.928 74.9V73.5C501.928 68.1 503.061 63.5 505.328 59.7C507.595 55.9 510.661 53 514.528 51C518.461 49 522.828 48 527.628 48C532.361 48 536.428 48.8333 539.828 50.5C543.228 52.1667 545.961 54.4667 548.028 57.4C550.161 60.2667 551.561 63.5333 552.228 67.2L540.028 69.8C539.761 67.8 539.161 66 538.228 64.4C537.295 62.8 535.961 61.5333 534.228 60.6C532.561 59.6667 530.461 59.2 527.928 59.2C525.395 59.2 523.095 59.7667 521.028 60.9C519.028 61.9667 517.428 63.6 516.228 65.8C515.095 67.9333 514.528 70.5667 514.528 73.7V74.7C514.528 77.8333 515.095 80.5 516.228 82.7C517.428 84.8333 519.028 86.4667 521.028 87.6C523.095 88.6667 525.395 89.2 527.928 89.2C531.728 89.2 534.595 88.2333 536.528 86.3C538.528 84.3 539.795 81.7 540.328 78.5L552.528 81.4C551.661 84.9333 550.161 88.1667 548.028 91.1C545.961 93.9667 543.228 96.2333 539.828 97.9C536.428 99.5667 532.361 100.4 527.628 100.4Z" fill="white" style="fill:white;fill-opacity:1;"/>
</g>
</svg>
